<svg xmlns="http://www.w3.org/2000/svg" viewBox="0 0 512 512"><defs><linearGradient id="a" x1="411.78" y1="58.2" x2="147.44" y2="393.84" gradientUnits="userSpaceOnUse"><stop offset="0" stop-color="#7bd26a"/><stop offset="1" stop-color="#07b26a"/></linearGradient></defs><circle cx="256" cy="256" r="256" style="fill:url(#a)"/><path d="M369.9 140.6c-29-41.9-86.9-54.1-128.5-27.7l-73.3 46.9a83.1 83.1 0 0 0-37.8 56.2 86.6 86.6 0 0 0 8.8 56.8 81.3 81.3 0 0 0-12.6 31.5 90.3 90.3 0 0 0 15.2 67.7c29.4 41.8 86.9 54.1 128.5 27.7l73.3-46.7a83.2 83.2 0 0 0 37.9-56.2 87.9 87.9 0 0 0-8.8-56.8 80.7 80.7 0 0 0 12.5-31.4 88.1 88.1 0 0 0-15.2-68Zm-20.8 60a58.4 58.4 0 0 1-1.8 6.9l-1.4 4.3-3.7-2.7a97.3 97.3 0 0 0-28.8-14.4l-2.7-.8.3-2.7a17.8 17.8 0 0 0-2.9-10.9 17.6 17.6 0 0 0-19-6.9 20.1 20.1 0 0 0-4.5 1.8l-73 46.7a15.1 15.1 0 0 0-7 10.1 16.6 16.6 0 0 0 2.7 12.3 17.5 17.5 0 0 0 18.9 6.9 23.4 23.4 0 0 0 4.6-1.9l28-17.8a59.1 59.1 0 0 1 14.9-6.7 58.2 58.2 0 0 1 62.4 23.2 54.1 54.1 0 0 1 9.3 40.8 50.1 50.1 0 0 1-22.9 33.8l-73.3 46.7a59.7 59.7 0 0 1-15 6.7 58 58 0 0 1-62.3-23.2 53.8 53.8 0 0 1-9.4-40.8c.6-2.4 1.1-4.5 1.6-6.9l1.4-4.3 3.7 2.7a97.3 97.3 0 0 0 28.8 14.4l2.6.8-.2 2.6a17.8 17.8 0 0 0 2.9 10.9 17.5 17.5 0 0 0 18.9 7.2 23.2 23.2 0 0 0 4.6-1.8l73-46.7a15 15 0 0 0 6.9-10.1 16.6 16.6 0 0 0-2.6-12.3 17.6 17.6 0 0 0-19-6.9 20.3 20.3 0 0 0-4.5 1.9l-28 17.8a47 47 0 0 1-14.9 6.4 58.1 58.1 0 0 1-62.4-23.2 53.8 53.8 0 0 1-9-40.7 50.5 50.5 0 0 1 22.9-33.9l73.3-46.7a56.6 56.6 0 0 1 77.3 16.6 54.1 54.1 0 0 1 9.3 40.8Z" style="fill:#fff"/></svg>